<svg version="1.2"
    xmlns="http://www.w3.org/2000/svg" viewBox="0 0 176 54" width="700" height="215">
    <title>Black - logo-svg</title>
    <style>
		.s0 { fill: #202020 } 
    </style>
    <path id="Vector" fill-rule="evenodd" class="s0" d="m0 47.1l23.4-41.6q0.2-0.3 0.4-0.6 0.2-0.3 0.4-0.6 0.2-0.3 0.4-0.6 0.3-0.2 0.5-0.5 0.3-0.2 0.5-0.5 0.3-0.2 0.6-0.4 0.3-0.3 0.6-0.5 0.3-0.2 0.6-0.3 0.3-0.2 0.6-0.4 0.3-0.1 0.6-0.3 0.4-0.1 0.7-0.2 0.3-0.1 0.7-0.2 0.3-0.1 0.7-0.2 0.3-0.1 0.7-0.1 0.3-0.1 0.7-0.1 0.3 0 0.7 0 0.4 0 0.7 0 0.4 0.1 0.7 0.1 0.4 0.1 0.7 0.1 0.4 0.1 0.7 0.2 0.4 0.1 0.7 0.2 0.3 0.1 0.7 0.3 0.3 0.1 0.6 0.3 0.3 0.2 0.6 0.3 0.3 0.2 0.6 0.4 0.3 0.2 0.6 0.5 0.3 0.2 0.5 0.4 0.3 0.3 0.5 0.5 0.3 0.3 0.5 0.5 0.2 0.3 0.4 0.6 0.2 0.3 0.4 0.6 0.2 0.3 0.4 0.6l18.5 34 17.9-33.7q0.1-0.3 0.3-0.6 0.2-0.3 0.4-0.6 0.2-0.3 0.5-0.6 0.2-0.2 0.4-0.5 0.3-0.3 0.5-0.5 0.3-0.2 0.6-0.5 0.3-0.2 0.5-0.4 0.3-0.2 0.6-0.4 0.4-0.2 0.7-0.4 0.3-0.1 0.6-0.3 0.4-0.1 0.7-0.2 0.3-0.2 0.7-0.3 0.3-0.1 0.7-0.1 0.3-0.1 0.7-0.2 0.3 0 0.7 0 0.4-0.1 0.7-0.1 0.4 0 0.8 0 0.3 0.1 0.7 0.1 0.3 0.1 0.7 0.1 0.3 0.1 0.7 0.2 0.3 0.1 0.7 0.2 0.3 0.1 0.7 0.3 0.3 0.1 0.6 0.3 0.3 0.1 0.6 0.3 0.3 0.2 0.6 0.4 0.3 0.2 0.6 0.4 0.3 0.3 0.6 0.5 0.2 0.3 0.5 0.5 0.2 0.3 0.5 0.5 0.2 0.3 0.4 0.6 0.2 0.3 0.4 0.6 0.2 0.3 0.4 0.6l18.3 33.7 17.3-33.6q0.2-0.4 0.4-0.7 0.1-0.3 0.3-0.6 0.2-0.2 0.5-0.5 0.2-0.3 0.4-0.6 0.3-0.2 0.5-0.5 0.3-0.2 0.6-0.4 0.2-0.3 0.5-0.5 0.3-0.2 0.6-0.4 0.3-0.2 0.6-0.4 0.3-0.1 0.7-0.3 0.3-0.1 0.6-0.3 0.3-0.1 0.7-0.2 0.3-0.1 0.7-0.2 0.3-0.1 0.7-0.1 0.3-0.1 0.7-0.1 0.3 0 0.7 0 0.4-0.1 0.7 0 0.4 0 0.7 0 0.4 0 0.7 0.1 0.4 0.1 0.7 0.2 0.4 0 0.7 0.2 0.4 0.1 0.7 0.2 0.3 0.1 0.7 0.3 0.3 0.1 0.6 0.3 0.3 0.2 0.6 0.4 0.3 0.2 0.6 0.4 0.3 0.2 0.5 0.4 0.3 0.3 0.6 0.5 0.2 0.3 0.4 0.5 0.3 0.3 0.5 0.6 0.2 0.3 0.4 0.6 0.2 0.2 0.4 0.5l24.3 41.5-10.4 6.1-1.7-3-21.3-36.4-17.4 33.7q-0.2 0.3-0.3 0.6-0.2 0.3-0.4 0.6-0.2 0.3-0.5 0.6-0.2 0.3-0.4 0.5-0.2 0.2-0.4 0.4-0.1 0.1-0.2 0.2-0.2 0.2-0.5 0.4-0.3 0.3-0.6 0.5-0.3 0.2-0.6 0.4-0.3 0.2-0.6 0.3-0.3 0.2-0.6 0.4-0.4 0.1-0.7 0.2-0.3 0.2-0.7 0.3-0.3 0.1-0.7 0.1-0.3 0.1-0.7 0.2-0.4 0-0.7 0.1-0.4 0-0.8 0-0.3 0-0.7 0-0.3 0-0.7-0.1-0.4 0-0.7-0.1-0.4-0.1-0.7-0.2-0.4-0.1-0.7-0.2-0.4-0.1-0.7-0.2-0.3-0.2-0.7-0.3-0.3-0.2-0.6-0.4-0.3-0.2-0.6-0.4-0.3-0.2-0.6-0.4-0.3-0.2-0.5-0.5-0.2-0.1-0.4-0.3-0.1-0.1-0.2-0.2-0.2-0.2-0.4-0.5-0.3-0.3-0.5-0.6-0.2-0.3-0.4-0.6-0.2-0.3-0.3-0.6l-18.4-33.7-17.8 33.7q-0.2 0.3-0.4 0.6-0.2 0.3-0.4 0.6-0.2 0.3-0.4 0.6-0.3 0.3-0.5 0.5-0.1 0.1-0.2 0.3-0.2 0.1-0.3 0.2-0.3 0.3-0.5 0.5-0.3 0.2-0.6 0.4-0.3 0.2-0.6 0.4-0.3 0.2-0.7 0.4-0.3 0.2-0.6 0.3-0.3 0.1-0.7 0.3-0.3 0.1-0.7 0.2-0.3 0.1-0.6 0.2-0.4 0-0.8 0.1-0.3 0-0.7 0.1-0.3 0-0.7 0-0.4 0-0.7 0-0.4 0-0.7-0.1-0.4 0-0.8-0.1-0.3-0.1-0.7-0.2-0.3-0.1-0.6-0.2-0.4-0.1-0.7-0.2-0.4-0.2-0.7-0.4-0.3-0.1-0.6-0.3-0.3-0.2-0.6-0.4-0.3-0.2-0.6-0.4-0.3-0.2-0.5-0.5-0.2-0.1-0.4-0.3-0.1-0.1-0.2-0.2-0.2-0.2-0.4-0.5-0.3-0.3-0.5-0.6-0.2-0.3-0.4-0.6-0.2-0.3-0.3-0.6l-18.6-34.1-20.6 36.6-1.6 3z"/>
</svg>